<mxfile host="Electron" agent="Mozilla/5.0 (Macintosh; Intel Mac OS X 10_15_7) AppleWebKit/537.36 (KHTML, like Gecko) draw.io/25.0.2 Chrome/128.0.6613.186 Electron/32.2.5 Safari/537.36" version="25.0.2">
  <diagram name="Page-1" id="YgiLFZP5ekWXbiqk66ZL">
    <mxGraphModel dx="1261" dy="37" grid="1" gridSize="10" guides="1" tooltips="1" connect="1" arrows="1" fold="1" page="0" pageScale="1" pageWidth="1169" pageHeight="827" math="0" shadow="0">
      <root>
        <mxCell id="0" />
        <mxCell id="1" parent="0" />
        <mxCell id="_1h60Payq04_R_aweM01-5" value="td Timing Diagram" style="shape=umlFrame;whiteSpace=wrap;html=1;pointerEvents=0;recursiveResize=0;container=1;collapsible=0;width=160;fontStyle=1" vertex="1" parent="1">
          <mxGeometry x="360" y="1107" width="999" height="628" as="geometry" />
        </mxCell>
        <mxCell id="_1h60Payq04_R_aweM01-6" value="idle" style="text;html=1;align=center;verticalAlign=middle;whiteSpace=wrap;rounded=0;fontSize=16;" vertex="1" parent="_1h60Payq04_R_aweM01-5">
          <mxGeometry x="44" y="153" width="60" height="30" as="geometry" />
        </mxCell>
        <mxCell id="_1h60Payq04_R_aweM01-9" value="processTicket" style="text;html=1;align=center;verticalAlign=middle;whiteSpace=wrap;rounded=0;fontSize=16;" vertex="1" parent="_1h60Payq04_R_aweM01-5">
          <mxGeometry x="80" y="119" width="60" height="30" as="geometry" />
        </mxCell>
        <mxCell id="_1h60Payq04_R_aweM01-10" value="passGate" style="text;html=1;align=center;verticalAlign=middle;whiteSpace=wrap;rounded=0;fontSize=16;" vertex="1" parent="_1h60Payq04_R_aweM01-5">
          <mxGeometry x="66" y="49" width="60" height="30" as="geometry" />
        </mxCell>
        <mxCell id="_1h60Payq04_R_aweM01-11" value="takeTicket" style="text;html=1;align=center;verticalAlign=middle;whiteSpace=wrap;rounded=0;fontSize=16;" vertex="1" parent="_1h60Payq04_R_aweM01-5">
          <mxGeometry x="66" y="84" width="60" height="30" as="geometry" />
        </mxCell>
        <mxCell id="_1h60Payq04_R_aweM01-12" value="noTicket" style="text;html=1;align=center;verticalAlign=middle;whiteSpace=wrap;rounded=0;fontSize=16;" vertex="1" parent="_1h60Payq04_R_aweM01-5">
          <mxGeometry x="60" y="242" width="60" height="30" as="geometry" />
        </mxCell>
        <mxCell id="_1h60Payq04_R_aweM01-13" value="validateTicket" style="text;html=1;align=center;verticalAlign=middle;whiteSpace=wrap;rounded=0;fontSize=16;" vertex="1" parent="_1h60Payq04_R_aweM01-5">
          <mxGeometry x="80" y="288" width="60" height="30" as="geometry" />
        </mxCell>
        <mxCell id="_1h60Payq04_R_aweM01-14" value="returnTicket" style="text;html=1;align=center;verticalAlign=middle;whiteSpace=wrap;rounded=0;fontSize=16;" vertex="1" parent="_1h60Payq04_R_aweM01-5">
          <mxGeometry x="73" y="334" width="60" height="30" as="geometry" />
        </mxCell>
        <mxCell id="_1h60Payq04_R_aweM01-15" value="openGate" style="text;html=1;align=center;verticalAlign=middle;whiteSpace=wrap;rounded=0;fontSize=16;" vertex="1" parent="_1h60Payq04_R_aweM01-5">
          <mxGeometry x="65" y="380" width="60" height="30" as="geometry" />
        </mxCell>
        <mxCell id="_1h60Payq04_R_aweM01-31" style="edgeStyle=none;curved=1;rounded=0;orthogonalLoop=1;jettySize=auto;html=1;fontSize=12;startSize=8;endSize=8;endArrow=none;endFill=0;" edge="1" parent="_1h60Payq04_R_aweM01-5" source="_1h60Payq04_R_aweM01-21" target="_1h60Payq04_R_aweM01-22">
          <mxGeometry relative="1" as="geometry" />
        </mxCell>
        <mxCell id="_1h60Payq04_R_aweM01-118" style="edgeStyle=none;shape=connector;curved=1;rounded=0;orthogonalLoop=1;jettySize=auto;html=1;strokeColor=default;align=center;verticalAlign=middle;fontFamily=Helvetica;fontSize=12;fontColor=default;labelBackgroundColor=default;startSize=8;endArrow=classic;endFill=1;endSize=8;" edge="1" parent="_1h60Payq04_R_aweM01-5" source="_1h60Payq04_R_aweM01-21" target="_1h60Payq04_R_aweM01-34">
          <mxGeometry relative="1" as="geometry" />
        </mxCell>
        <mxCell id="_1h60Payq04_R_aweM01-21" value="" style="shape=waypoint;sketch=0;fillStyle=solid;size=6;pointerEvents=1;points=[];fillColor=none;resizable=0;rotatable=0;perimeter=centerPerimeter;snapToPoint=1;" vertex="1" parent="_1h60Payq04_R_aweM01-5">
          <mxGeometry x="222" y="158" width="20" height="20" as="geometry" />
        </mxCell>
        <mxCell id="_1h60Payq04_R_aweM01-38" style="edgeStyle=none;shape=connector;curved=1;rounded=0;orthogonalLoop=1;jettySize=auto;html=1;strokeColor=default;align=center;verticalAlign=middle;fontFamily=Helvetica;fontSize=12;fontColor=default;labelBackgroundColor=default;startSize=8;endArrow=none;endFill=0;endSize=8;" edge="1" parent="_1h60Payq04_R_aweM01-5" source="_1h60Payq04_R_aweM01-22" target="_1h60Payq04_R_aweM01-32">
          <mxGeometry relative="1" as="geometry" />
        </mxCell>
        <mxCell id="_1h60Payq04_R_aweM01-22" value="" style="shape=waypoint;sketch=0;fillStyle=solid;size=6;pointerEvents=1;points=[];fillColor=none;resizable=0;rotatable=0;perimeter=centerPerimeter;snapToPoint=1;" vertex="1" parent="_1h60Payq04_R_aweM01-5">
          <mxGeometry x="222" y="124" width="20" height="20" as="geometry" />
        </mxCell>
        <mxCell id="_1h60Payq04_R_aweM01-54" style="edgeStyle=none;shape=connector;curved=1;rounded=0;orthogonalLoop=1;jettySize=auto;html=1;strokeColor=default;align=center;verticalAlign=middle;fontFamily=Helvetica;fontSize=12;fontColor=default;labelBackgroundColor=default;startSize=8;endArrow=none;endFill=0;endSize=8;" edge="1" parent="_1h60Payq04_R_aweM01-5" source="_1h60Payq04_R_aweM01-23" target="_1h60Payq04_R_aweM01-35">
          <mxGeometry relative="1" as="geometry" />
        </mxCell>
        <mxCell id="_1h60Payq04_R_aweM01-23" value="" style="shape=waypoint;sketch=0;fillStyle=solid;size=6;pointerEvents=1;points=[];fillColor=none;resizable=0;rotatable=0;perimeter=centerPerimeter;snapToPoint=1;" vertex="1" parent="_1h60Payq04_R_aweM01-5">
          <mxGeometry x="254" y="293" width="20" height="20" as="geometry" />
        </mxCell>
        <mxCell id="_1h60Payq04_R_aweM01-56" style="edgeStyle=none;shape=connector;curved=1;rounded=0;orthogonalLoop=1;jettySize=auto;html=1;strokeColor=default;align=center;verticalAlign=middle;fontFamily=Helvetica;fontSize=12;fontColor=default;labelBackgroundColor=default;startSize=8;endArrow=none;endFill=0;endSize=8;" edge="1" parent="_1h60Payq04_R_aweM01-5" source="_1h60Payq04_R_aweM01-24" target="_1h60Payq04_R_aweM01-36">
          <mxGeometry relative="1" as="geometry" />
        </mxCell>
        <mxCell id="_1h60Payq04_R_aweM01-24" value="" style="shape=waypoint;sketch=0;fillStyle=solid;size=6;pointerEvents=1;points=[];fillColor=none;resizable=0;rotatable=0;perimeter=centerPerimeter;snapToPoint=1;" vertex="1" parent="_1h60Payq04_R_aweM01-5">
          <mxGeometry x="372" y="339" width="20" height="20" as="geometry" />
        </mxCell>
        <mxCell id="_1h60Payq04_R_aweM01-40" style="edgeStyle=none;shape=connector;curved=1;rounded=0;orthogonalLoop=1;jettySize=auto;html=1;strokeColor=default;align=center;verticalAlign=middle;fontFamily=Helvetica;fontSize=12;fontColor=default;labelBackgroundColor=default;startSize=8;endArrow=none;endFill=0;endSize=8;" edge="1" parent="_1h60Payq04_R_aweM01-5" source="_1h60Payq04_R_aweM01-25" target="_1h60Payq04_R_aweM01-33">
          <mxGeometry relative="1" as="geometry" />
        </mxCell>
        <mxCell id="_1h60Payq04_R_aweM01-25" value="" style="shape=waypoint;sketch=0;fillStyle=solid;size=6;pointerEvents=1;points=[];fillColor=none;resizable=0;rotatable=0;perimeter=centerPerimeter;snapToPoint=1;" vertex="1" parent="_1h60Payq04_R_aweM01-5">
          <mxGeometry x="430" y="89" width="20" height="20" as="geometry" />
        </mxCell>
        <mxCell id="_1h60Payq04_R_aweM01-60" style="edgeStyle=none;shape=connector;curved=1;rounded=0;orthogonalLoop=1;jettySize=auto;html=1;strokeColor=default;align=center;verticalAlign=middle;fontFamily=Helvetica;fontSize=12;fontColor=default;labelBackgroundColor=default;startSize=8;endArrow=none;endFill=0;endSize=8;" edge="1" parent="_1h60Payq04_R_aweM01-5" source="_1h60Payq04_R_aweM01-26" target="_1h60Payq04_R_aweM01-37">
          <mxGeometry relative="1" as="geometry" />
        </mxCell>
        <mxCell id="_1h60Payq04_R_aweM01-26" value="" style="shape=waypoint;sketch=0;fillStyle=solid;size=6;pointerEvents=1;points=[];fillColor=none;resizable=0;rotatable=0;perimeter=centerPerimeter;snapToPoint=1;" vertex="1" parent="_1h60Payq04_R_aweM01-5">
          <mxGeometry x="402" y="385" width="20" height="20" as="geometry" />
        </mxCell>
        <mxCell id="_1h60Payq04_R_aweM01-44" style="edgeStyle=none;shape=connector;curved=1;rounded=0;orthogonalLoop=1;jettySize=auto;html=1;strokeColor=default;align=center;verticalAlign=middle;fontFamily=Helvetica;fontSize=12;fontColor=default;labelBackgroundColor=default;startSize=8;endArrow=none;endFill=0;endSize=8;" edge="1" parent="_1h60Payq04_R_aweM01-5" source="_1h60Payq04_R_aweM01-27" target="_1h60Payq04_R_aweM01-43">
          <mxGeometry relative="1" as="geometry" />
        </mxCell>
        <mxCell id="_1h60Payq04_R_aweM01-27" value="" style="shape=waypoint;sketch=0;fillStyle=solid;size=6;pointerEvents=1;points=[];fillColor=none;resizable=0;rotatable=0;perimeter=centerPerimeter;snapToPoint=1;" vertex="1" parent="_1h60Payq04_R_aweM01-5">
          <mxGeometry x="550" y="54" width="20" height="20" as="geometry" />
        </mxCell>
        <mxCell id="_1h60Payq04_R_aweM01-28" value="lockGate" style="text;html=1;align=center;verticalAlign=middle;whiteSpace=wrap;rounded=0;fontSize=16;" vertex="1" parent="_1h60Payq04_R_aweM01-5">
          <mxGeometry x="60" y="426" width="60" height="30" as="geometry" />
        </mxCell>
        <mxCell id="_1h60Payq04_R_aweM01-62" style="edgeStyle=none;shape=connector;curved=1;rounded=0;orthogonalLoop=1;jettySize=auto;html=1;strokeColor=default;align=center;verticalAlign=middle;fontFamily=Helvetica;fontSize=12;fontColor=default;labelBackgroundColor=default;startSize=8;endArrow=none;endFill=0;endSize=8;" edge="1" parent="_1h60Payq04_R_aweM01-5" source="_1h60Payq04_R_aweM01-29" target="_1h60Payq04_R_aweM01-59">
          <mxGeometry relative="1" as="geometry" />
        </mxCell>
        <mxCell id="_1h60Payq04_R_aweM01-29" value="" style="shape=waypoint;sketch=0;fillStyle=solid;size=6;pointerEvents=1;points=[];fillColor=none;resizable=0;rotatable=0;perimeter=centerPerimeter;snapToPoint=1;" vertex="1" parent="_1h60Payq04_R_aweM01-5">
          <mxGeometry x="787" y="431" width="20" height="20" as="geometry" />
        </mxCell>
        <mxCell id="_1h60Payq04_R_aweM01-39" style="edgeStyle=none;shape=connector;curved=1;rounded=0;orthogonalLoop=1;jettySize=auto;html=1;strokeColor=default;align=center;verticalAlign=middle;fontFamily=Helvetica;fontSize=12;fontColor=default;labelBackgroundColor=default;startSize=8;endArrow=none;endFill=0;endSize=8;" edge="1" parent="_1h60Payq04_R_aweM01-5" source="_1h60Payq04_R_aweM01-32" target="_1h60Payq04_R_aweM01-25">
          <mxGeometry relative="1" as="geometry" />
        </mxCell>
        <mxCell id="_1h60Payq04_R_aweM01-32" value="" style="shape=waypoint;sketch=0;fillStyle=solid;size=6;pointerEvents=1;points=[];fillColor=none;resizable=0;rotatable=0;perimeter=centerPerimeter;snapToPoint=1;fontFamily=Helvetica;fontSize=12;fontColor=default;labelBackgroundColor=default;" vertex="1" parent="_1h60Payq04_R_aweM01-5">
          <mxGeometry x="430" y="124" width="20" height="20" as="geometry" />
        </mxCell>
        <mxCell id="_1h60Payq04_R_aweM01-41" style="edgeStyle=none;shape=connector;curved=1;rounded=0;orthogonalLoop=1;jettySize=auto;html=1;strokeColor=default;align=center;verticalAlign=middle;fontFamily=Helvetica;fontSize=12;fontColor=default;labelBackgroundColor=default;startSize=8;endArrow=none;endFill=0;endSize=8;" edge="1" parent="_1h60Payq04_R_aweM01-5" source="_1h60Payq04_R_aweM01-33" target="_1h60Payq04_R_aweM01-27">
          <mxGeometry relative="1" as="geometry" />
        </mxCell>
        <mxCell id="_1h60Payq04_R_aweM01-33" value="" style="shape=waypoint;sketch=0;fillStyle=solid;size=6;pointerEvents=1;points=[];fillColor=none;resizable=0;rotatable=0;perimeter=centerPerimeter;snapToPoint=1;fontFamily=Helvetica;fontSize=12;fontColor=default;labelBackgroundColor=default;" vertex="1" parent="_1h60Payq04_R_aweM01-5">
          <mxGeometry x="550" y="89" width="20" height="20" as="geometry" />
        </mxCell>
        <mxCell id="_1h60Payq04_R_aweM01-53" style="edgeStyle=none;shape=connector;curved=1;rounded=0;orthogonalLoop=1;jettySize=auto;html=1;strokeColor=default;align=center;verticalAlign=middle;fontFamily=Helvetica;fontSize=12;fontColor=default;labelBackgroundColor=default;startSize=8;endArrow=none;endFill=0;endSize=8;" edge="1" parent="_1h60Payq04_R_aweM01-5" source="_1h60Payq04_R_aweM01-34" target="_1h60Payq04_R_aweM01-23">
          <mxGeometry relative="1" as="geometry" />
        </mxCell>
        <mxCell id="_1h60Payq04_R_aweM01-34" value="" style="shape=waypoint;sketch=0;fillStyle=solid;size=6;pointerEvents=1;points=[];fillColor=none;resizable=0;rotatable=0;perimeter=centerPerimeter;snapToPoint=1;fontFamily=Helvetica;fontSize=12;fontColor=default;labelBackgroundColor=default;" vertex="1" parent="_1h60Payq04_R_aweM01-5">
          <mxGeometry x="254" y="247" width="20" height="20" as="geometry" />
        </mxCell>
        <mxCell id="_1h60Payq04_R_aweM01-55" style="edgeStyle=none;shape=connector;curved=1;rounded=0;orthogonalLoop=1;jettySize=auto;html=1;strokeColor=default;align=center;verticalAlign=middle;fontFamily=Helvetica;fontSize=12;fontColor=default;labelBackgroundColor=default;startSize=8;endArrow=none;endFill=0;endSize=8;" edge="1" parent="_1h60Payq04_R_aweM01-5" source="_1h60Payq04_R_aweM01-35" target="_1h60Payq04_R_aweM01-24">
          <mxGeometry relative="1" as="geometry" />
        </mxCell>
        <mxCell id="_1h60Payq04_R_aweM01-35" value="" style="shape=waypoint;sketch=0;fillStyle=solid;size=6;pointerEvents=1;points=[];fillColor=none;resizable=0;rotatable=0;perimeter=centerPerimeter;snapToPoint=1;fontFamily=Helvetica;fontSize=12;fontColor=default;labelBackgroundColor=default;" vertex="1" parent="_1h60Payq04_R_aweM01-5">
          <mxGeometry x="372" y="293" width="20" height="20" as="geometry" />
        </mxCell>
        <mxCell id="_1h60Payq04_R_aweM01-57" style="edgeStyle=none;shape=connector;curved=1;rounded=0;orthogonalLoop=1;jettySize=auto;html=1;strokeColor=default;align=center;verticalAlign=middle;fontFamily=Helvetica;fontSize=12;fontColor=default;labelBackgroundColor=default;startSize=8;endArrow=none;endFill=0;endSize=8;" edge="1" parent="_1h60Payq04_R_aweM01-5" source="_1h60Payq04_R_aweM01-36" target="_1h60Payq04_R_aweM01-26">
          <mxGeometry relative="1" as="geometry">
            <mxPoint x="460" y="395" as="targetPoint" />
          </mxGeometry>
        </mxCell>
        <mxCell id="_1h60Payq04_R_aweM01-36" value="" style="shape=waypoint;sketch=0;fillStyle=solid;size=6;pointerEvents=1;points=[];fillColor=none;resizable=0;rotatable=0;perimeter=centerPerimeter;snapToPoint=1;fontFamily=Helvetica;fontSize=12;fontColor=default;labelBackgroundColor=default;" vertex="1" parent="_1h60Payq04_R_aweM01-5">
          <mxGeometry x="402" y="339" width="20" height="20" as="geometry" />
        </mxCell>
        <mxCell id="_1h60Payq04_R_aweM01-61" style="edgeStyle=none;shape=connector;curved=1;rounded=0;orthogonalLoop=1;jettySize=auto;html=1;strokeColor=default;align=center;verticalAlign=middle;fontFamily=Helvetica;fontSize=12;fontColor=default;labelBackgroundColor=default;startSize=8;endArrow=none;endFill=0;endSize=8;" edge="1" parent="_1h60Payq04_R_aweM01-5" source="_1h60Payq04_R_aweM01-37" target="_1h60Payq04_R_aweM01-29">
          <mxGeometry relative="1" as="geometry" />
        </mxCell>
        <mxCell id="_1h60Payq04_R_aweM01-37" value="" style="shape=waypoint;sketch=0;fillStyle=solid;size=6;pointerEvents=1;points=[];fillColor=none;resizable=0;rotatable=0;perimeter=centerPerimeter;snapToPoint=1;fontFamily=Helvetica;fontSize=12;fontColor=default;labelBackgroundColor=default;" vertex="1" parent="_1h60Payq04_R_aweM01-5">
          <mxGeometry x="787" y="385" width="20" height="20" as="geometry" />
        </mxCell>
        <mxCell id="_1h60Payq04_R_aweM01-46" style="edgeStyle=none;shape=connector;curved=1;rounded=0;orthogonalLoop=1;jettySize=auto;html=1;strokeColor=default;align=center;verticalAlign=middle;fontFamily=Helvetica;fontSize=12;fontColor=default;labelBackgroundColor=default;startSize=8;endArrow=none;endFill=0;endSize=8;" edge="1" parent="_1h60Payq04_R_aweM01-5" source="_1h60Payq04_R_aweM01-42">
          <mxGeometry relative="1" as="geometry">
            <mxPoint x="967.5" y="168.5" as="targetPoint" />
          </mxGeometry>
        </mxCell>
        <mxCell id="_1h60Payq04_R_aweM01-42" value="" style="shape=waypoint;sketch=0;fillStyle=solid;size=6;pointerEvents=1;points=[];fillColor=none;resizable=0;rotatable=0;perimeter=centerPerimeter;snapToPoint=1;fontFamily=Helvetica;fontSize=12;fontColor=default;labelBackgroundColor=default;" vertex="1" parent="_1h60Payq04_R_aweM01-5">
          <mxGeometry x="758" y="158" width="20" height="20" as="geometry" />
        </mxCell>
        <mxCell id="_1h60Payq04_R_aweM01-30" value="" style="endArrow=none;html=1;rounded=0;fontSize=12;startSize=8;endSize=8;curved=1;" edge="1" parent="_1h60Payq04_R_aweM01-5" target="_1h60Payq04_R_aweM01-21">
          <mxGeometry width="50" height="50" relative="1" as="geometry">
            <mxPoint x="162" y="168" as="sourcePoint" />
            <mxPoint x="504" y="253" as="targetPoint" />
          </mxGeometry>
        </mxCell>
        <mxCell id="_1h60Payq04_R_aweM01-45" style="edgeStyle=none;shape=connector;curved=1;rounded=0;orthogonalLoop=1;jettySize=auto;html=1;strokeColor=default;align=center;verticalAlign=middle;fontFamily=Helvetica;fontSize=12;fontColor=default;labelBackgroundColor=default;startSize=8;endArrow=none;endFill=0;endSize=8;" edge="1" parent="_1h60Payq04_R_aweM01-5" source="_1h60Payq04_R_aweM01-43" target="_1h60Payq04_R_aweM01-42">
          <mxGeometry relative="1" as="geometry" />
        </mxCell>
        <mxCell id="_1h60Payq04_R_aweM01-43" value="" style="shape=waypoint;sketch=0;fillStyle=solid;size=6;pointerEvents=1;points=[];fillColor=none;resizable=0;rotatable=0;perimeter=centerPerimeter;snapToPoint=1;fontFamily=Helvetica;fontSize=12;fontColor=default;labelBackgroundColor=default;" vertex="1" parent="_1h60Payq04_R_aweM01-5">
          <mxGeometry x="758" y="54" width="20" height="20" as="geometry" />
        </mxCell>
        <mxCell id="_1h60Payq04_R_aweM01-52" value="" style="endArrow=none;html=1;rounded=0;strokeColor=default;align=center;verticalAlign=middle;fontFamily=Helvetica;fontSize=12;fontColor=default;labelBackgroundColor=default;edgeStyle=none;startSize=8;endSize=8;curved=1;" edge="1" parent="_1h60Payq04_R_aweM01-5" target="_1h60Payq04_R_aweM01-34">
          <mxGeometry width="50" height="50" relative="1" as="geometry">
            <mxPoint x="166" y="256" as="sourcePoint" />
            <mxPoint x="504" y="24" as="targetPoint" />
          </mxGeometry>
        </mxCell>
        <mxCell id="_1h60Payq04_R_aweM01-64" style="edgeStyle=none;shape=connector;curved=1;rounded=0;orthogonalLoop=1;jettySize=auto;html=1;strokeColor=default;align=center;verticalAlign=middle;fontFamily=Helvetica;fontSize=12;fontColor=default;labelBackgroundColor=default;startSize=8;endArrow=none;endFill=0;endSize=8;" edge="1" parent="_1h60Payq04_R_aweM01-5" source="_1h60Payq04_R_aweM01-58">
          <mxGeometry relative="1" as="geometry">
            <mxPoint x="965" y="256" as="targetPoint" />
          </mxGeometry>
        </mxCell>
        <mxCell id="_1h60Payq04_R_aweM01-58" value="" style="shape=waypoint;sketch=0;fillStyle=solid;size=6;pointerEvents=1;points=[];fillColor=none;resizable=0;rotatable=0;perimeter=centerPerimeter;snapToPoint=1;fontFamily=Helvetica;fontSize=12;fontColor=default;labelBackgroundColor=default;" vertex="1" parent="_1h60Payq04_R_aweM01-5">
          <mxGeometry x="876" y="247" width="20" height="20" as="geometry" />
        </mxCell>
        <mxCell id="_1h60Payq04_R_aweM01-63" style="edgeStyle=none;shape=connector;curved=1;rounded=0;orthogonalLoop=1;jettySize=auto;html=1;strokeColor=default;align=center;verticalAlign=middle;fontFamily=Helvetica;fontSize=12;fontColor=default;labelBackgroundColor=default;startSize=8;endArrow=none;endFill=0;endSize=8;" edge="1" parent="_1h60Payq04_R_aweM01-5" source="_1h60Payq04_R_aweM01-59" target="_1h60Payq04_R_aweM01-58">
          <mxGeometry relative="1" as="geometry" />
        </mxCell>
        <mxCell id="_1h60Payq04_R_aweM01-59" value="" style="shape=waypoint;sketch=0;fillStyle=solid;size=6;pointerEvents=1;points=[];fillColor=none;resizable=0;rotatable=0;perimeter=centerPerimeter;snapToPoint=1;fontFamily=Helvetica;fontSize=12;fontColor=default;labelBackgroundColor=default;" vertex="1" parent="_1h60Payq04_R_aweM01-5">
          <mxGeometry x="876" y="431" width="20" height="20" as="geometry" />
        </mxCell>
        <mxCell id="_1h60Payq04_R_aweM01-90" value="" style="group" vertex="1" connectable="0" parent="_1h60Payq04_R_aweM01-5">
          <mxGeometry y="205.5" width="999" height="17.5" as="geometry" />
        </mxCell>
        <mxCell id="_1h60Payq04_R_aweM01-50" value="" style="line;strokeWidth=2;html=1;fontFamily=Helvetica;fontSize=12;fontColor=default;labelBackgroundColor=default;" vertex="1" parent="_1h60Payq04_R_aweM01-90">
          <mxGeometry y="2.5" width="999" height="10" as="geometry" />
        </mxCell>
        <mxCell id="_1h60Payq04_R_aweM01-65" value="" style="line;strokeWidth=2;direction=south;html=1;fontFamily=Helvetica;fontSize=12;fontColor=default;labelBackgroundColor=default;verticalAlign=bottom;" vertex="1" parent="_1h60Payq04_R_aweM01-90">
          <mxGeometry x="259" y="0.5" width="10" height="15" as="geometry" />
        </mxCell>
        <mxCell id="_1h60Payq04_R_aweM01-66" value="" style="line;strokeWidth=2;direction=south;html=1;fontFamily=Helvetica;fontSize=12;fontColor=default;labelBackgroundColor=default;verticalAlign=bottom;" vertex="1" parent="_1h60Payq04_R_aweM01-90">
          <mxGeometry x="348" y="0.5" width="10" height="15" as="geometry" />
        </mxCell>
        <mxCell id="_1h60Payq04_R_aweM01-67" value="" style="line;strokeWidth=2;direction=south;html=1;fontFamily=Helvetica;fontSize=12;fontColor=default;labelBackgroundColor=default;verticalAlign=bottom;" vertex="1" parent="_1h60Payq04_R_aweM01-90">
          <mxGeometry x="289" y="0.5" width="10" height="15" as="geometry" />
        </mxCell>
        <mxCell id="_1h60Payq04_R_aweM01-68" value="" style="line;strokeWidth=2;direction=south;html=1;fontFamily=Helvetica;fontSize=12;fontColor=default;labelBackgroundColor=default;verticalAlign=bottom;" vertex="1" parent="_1h60Payq04_R_aweM01-90">
          <mxGeometry x="318" y="0.5" width="10" height="15" as="geometry" />
        </mxCell>
        <mxCell id="_1h60Payq04_R_aweM01-69" value="" style="line;strokeWidth=2;direction=south;html=1;fontFamily=Helvetica;fontSize=12;fontColor=default;labelBackgroundColor=default;verticalAlign=bottom;" vertex="1" parent="_1h60Payq04_R_aweM01-90">
          <mxGeometry x="377" y="0.5" width="10" height="15" as="geometry" />
        </mxCell>
        <mxCell id="_1h60Payq04_R_aweM01-70" value="" style="line;strokeWidth=2;direction=south;html=1;fontFamily=Helvetica;fontSize=12;fontColor=default;labelBackgroundColor=default;verticalAlign=bottom;" vertex="1" parent="_1h60Payq04_R_aweM01-90">
          <mxGeometry x="407" y="0.5" width="10" height="15" as="geometry" />
        </mxCell>
        <mxCell id="_1h60Payq04_R_aweM01-71" value="OK" style="line;strokeWidth=2;direction=south;html=1;fontFamily=Helvetica;fontSize=12;fontColor=default;labelBackgroundColor=default;verticalAlign=bottom;spacingTop=0;spacingBottom=13;" vertex="1" parent="_1h60Payq04_R_aweM01-90">
          <mxGeometry x="437" y="0.5" width="10" height="15" as="geometry" />
        </mxCell>
        <mxCell id="_1h60Payq04_R_aweM01-72" value="" style="line;strokeWidth=2;direction=south;html=1;fontFamily=Helvetica;fontSize=12;fontColor=default;labelBackgroundColor=default;verticalAlign=bottom;" vertex="1" parent="_1h60Payq04_R_aweM01-90">
          <mxGeometry x="466" y="0.5" width="10" height="15" as="geometry" />
        </mxCell>
        <mxCell id="_1h60Payq04_R_aweM01-73" value="" style="line;strokeWidth=2;direction=south;html=1;fontFamily=Helvetica;fontSize=12;fontColor=default;labelBackgroundColor=default;verticalAlign=bottom;" vertex="1" parent="_1h60Payq04_R_aweM01-90">
          <mxGeometry x="496" y="0.5" width="10" height="15" as="geometry" />
        </mxCell>
        <mxCell id="_1h60Payq04_R_aweM01-74" value="" style="line;strokeWidth=2;direction=south;html=1;fontFamily=Helvetica;fontSize=12;fontColor=default;labelBackgroundColor=default;verticalAlign=bottom;" vertex="1" parent="_1h60Payq04_R_aweM01-90">
          <mxGeometry x="526" y="0.5" width="10" height="15" as="geometry" />
        </mxCell>
        <mxCell id="_1h60Payq04_R_aweM01-75" value="" style="line;strokeWidth=2;direction=south;html=1;fontFamily=Helvetica;fontSize=12;fontColor=default;labelBackgroundColor=default;verticalAlign=bottom;" vertex="1" parent="_1h60Payq04_R_aweM01-90">
          <mxGeometry x="555" y="0.5" width="10" height="15" as="geometry" />
        </mxCell>
        <mxCell id="_1h60Payq04_R_aweM01-76" value="" style="line;strokeWidth=2;direction=south;html=1;fontFamily=Helvetica;fontSize=12;fontColor=default;labelBackgroundColor=default;verticalAlign=bottom;" vertex="1" parent="_1h60Payq04_R_aweM01-90">
          <mxGeometry x="585" y="0.5" width="10" height="15" as="geometry" />
        </mxCell>
        <mxCell id="_1h60Payq04_R_aweM01-77" value="" style="line;strokeWidth=2;direction=south;html=1;fontFamily=Helvetica;fontSize=12;fontColor=default;labelBackgroundColor=default;verticalAlign=bottom;" vertex="1" parent="_1h60Payq04_R_aweM01-90">
          <mxGeometry x="614" y="0.5" width="10" height="15" as="geometry" />
        </mxCell>
        <mxCell id="_1h60Payq04_R_aweM01-78" value="" style="line;strokeWidth=2;direction=south;html=1;fontFamily=Helvetica;fontSize=12;fontColor=default;labelBackgroundColor=default;verticalAlign=bottom;" vertex="1" parent="_1h60Payq04_R_aweM01-90">
          <mxGeometry x="644" y="0.5" width="10" height="15" as="geometry" />
        </mxCell>
        <mxCell id="_1h60Payq04_R_aweM01-79" value="" style="line;strokeWidth=2;direction=south;html=1;fontFamily=Helvetica;fontSize=12;fontColor=default;labelBackgroundColor=default;verticalAlign=bottom;" vertex="1" parent="_1h60Payq04_R_aweM01-90">
          <mxGeometry x="674" y="0.5" width="10" height="15" as="geometry" />
        </mxCell>
        <mxCell id="_1h60Payq04_R_aweM01-80" value="" style="line;strokeWidth=2;direction=south;html=1;fontFamily=Helvetica;fontSize=12;fontColor=default;labelBackgroundColor=default;verticalAlign=bottom;" vertex="1" parent="_1h60Payq04_R_aweM01-90">
          <mxGeometry x="703" y="0.5" width="10" height="15" as="geometry" />
        </mxCell>
        <mxCell id="_1h60Payq04_R_aweM01-81" value="" style="line;strokeWidth=2;direction=south;html=1;fontFamily=Helvetica;fontSize=12;fontColor=default;labelBackgroundColor=default;verticalAlign=bottom;" vertex="1" parent="_1h60Payq04_R_aweM01-90">
          <mxGeometry x="733" y="0.5" width="10" height="15" as="geometry" />
        </mxCell>
        <mxCell id="_1h60Payq04_R_aweM01-82" value="" style="line;strokeWidth=2;direction=south;html=1;fontFamily=Helvetica;fontSize=12;fontColor=default;labelBackgroundColor=default;verticalAlign=bottom;" vertex="1" parent="_1h60Payq04_R_aweM01-90">
          <mxGeometry x="763" y="0.5" width="10" height="15" as="geometry" />
        </mxCell>
        <mxCell id="_1h60Payq04_R_aweM01-83" value="" style="line;strokeWidth=2;direction=south;html=1;fontFamily=Helvetica;fontSize=12;fontColor=default;labelBackgroundColor=default;verticalAlign=bottom;" vertex="1" parent="_1h60Payq04_R_aweM01-90">
          <mxGeometry x="792" y="0.5" width="10" height="15" as="geometry" />
        </mxCell>
        <mxCell id="_1h60Payq04_R_aweM01-84" value="" style="line;strokeWidth=2;direction=south;html=1;fontFamily=Helvetica;fontSize=12;fontColor=default;labelBackgroundColor=default;verticalAlign=bottom;" vertex="1" parent="_1h60Payq04_R_aweM01-90">
          <mxGeometry x="822" y="0.5" width="10" height="15" as="geometry" />
        </mxCell>
        <mxCell id="_1h60Payq04_R_aweM01-85" value="" style="line;strokeWidth=2;direction=south;html=1;fontFamily=Helvetica;fontSize=12;fontColor=default;labelBackgroundColor=default;verticalAlign=bottom;" vertex="1" parent="_1h60Payq04_R_aweM01-90">
          <mxGeometry x="851" y="0.5" width="10" height="15" as="geometry" />
        </mxCell>
        <mxCell id="_1h60Payq04_R_aweM01-86" value="" style="line;strokeWidth=2;direction=south;html=1;fontFamily=Helvetica;fontSize=12;fontColor=default;labelBackgroundColor=default;verticalAlign=bottom;" vertex="1" parent="_1h60Payq04_R_aweM01-90">
          <mxGeometry x="881" y="0.5" width="10" height="15" as="geometry" />
        </mxCell>
        <mxCell id="_1h60Payq04_R_aweM01-87" value="" style="line;strokeWidth=2;direction=south;html=1;fontFamily=Helvetica;fontSize=12;fontColor=default;labelBackgroundColor=default;verticalAlign=bottom;" vertex="1" parent="_1h60Payq04_R_aweM01-90">
          <mxGeometry x="911" y="0.5" width="10" height="15" as="geometry" />
        </mxCell>
        <mxCell id="_1h60Payq04_R_aweM01-88" value="" style="line;strokeWidth=2;direction=south;html=1;fontFamily=Helvetica;fontSize=12;fontColor=default;labelBackgroundColor=default;verticalAlign=bottom;" vertex="1" parent="_1h60Payq04_R_aweM01-90">
          <mxGeometry x="940" y="0.5" width="10" height="15" as="geometry" />
        </mxCell>
        <mxCell id="_1h60Payq04_R_aweM01-89" value="" style="line;strokeWidth=2;direction=south;html=1;fontFamily=Helvetica;fontSize=12;fontColor=default;labelBackgroundColor=default;verticalAlign=bottom;" vertex="1" parent="_1h60Payq04_R_aweM01-90">
          <mxGeometry x="970" y="0.5" width="10" height="15" as="geometry" />
        </mxCell>
        <mxCell id="_1h60Payq04_R_aweM01-122" value="" style="line;strokeWidth=2;direction=south;html=1;fontFamily=Helvetica;fontSize=12;fontColor=default;labelBackgroundColor=default;verticalAlign=bottom;" vertex="1" parent="_1h60Payq04_R_aweM01-90">
          <mxGeometry x="200" y="0.5" width="10" height="15" as="geometry" />
        </mxCell>
        <mxCell id="_1h60Payq04_R_aweM01-123" value="Start" style="line;strokeWidth=2;direction=south;html=1;fontFamily=Helvetica;fontSize=12;fontColor=default;labelBackgroundColor=default;verticalAlign=bottom;spacingBottom=10;" vertex="1" parent="_1h60Payq04_R_aweM01-90">
          <mxGeometry x="170" y="0.5" width="10" height="15" as="geometry" />
        </mxCell>
        <mxCell id="_1h60Payq04_R_aweM01-91" value="" style="group" vertex="1" connectable="0" parent="_1h60Payq04_R_aweM01-5">
          <mxGeometry y="483" width="999" height="17.5" as="geometry" />
        </mxCell>
        <mxCell id="_1h60Payq04_R_aweM01-92" value="" style="line;strokeWidth=2;html=1;fontFamily=Helvetica;fontSize=12;fontColor=default;labelBackgroundColor=default;" vertex="1" parent="_1h60Payq04_R_aweM01-91">
          <mxGeometry y="2.5" width="999" height="10" as="geometry" />
        </mxCell>
        <mxCell id="_1h60Payq04_R_aweM01-93" value="" style="line;strokeWidth=2;direction=south;html=1;fontFamily=Helvetica;fontSize=12;fontColor=default;labelBackgroundColor=default;verticalAlign=bottom;" vertex="1" parent="_1h60Payq04_R_aweM01-91">
          <mxGeometry x="259" width="10" height="15" as="geometry" />
        </mxCell>
        <mxCell id="_1h60Payq04_R_aweM01-94" value="" style="line;strokeWidth=2;direction=south;html=1;fontFamily=Helvetica;fontSize=12;fontColor=default;labelBackgroundColor=default;verticalAlign=bottom;" vertex="1" parent="_1h60Payq04_R_aweM01-91">
          <mxGeometry x="348" width="10" height="15" as="geometry" />
        </mxCell>
        <mxCell id="_1h60Payq04_R_aweM01-95" value="" style="line;strokeWidth=2;direction=south;html=1;fontFamily=Helvetica;fontSize=12;fontColor=default;labelBackgroundColor=default;verticalAlign=bottom;" vertex="1" parent="_1h60Payq04_R_aweM01-91">
          <mxGeometry x="289" width="10" height="15" as="geometry" />
        </mxCell>
        <mxCell id="_1h60Payq04_R_aweM01-96" value="" style="line;strokeWidth=2;direction=south;html=1;fontFamily=Helvetica;fontSize=12;fontColor=default;labelBackgroundColor=default;verticalAlign=bottom;" vertex="1" parent="_1h60Payq04_R_aweM01-91">
          <mxGeometry x="318" width="10" height="15" as="geometry" />
        </mxCell>
        <mxCell id="_1h60Payq04_R_aweM01-97" value="" style="line;strokeWidth=2;direction=south;html=1;fontFamily=Helvetica;fontSize=12;fontColor=default;labelBackgroundColor=default;verticalAlign=bottom;" vertex="1" parent="_1h60Payq04_R_aweM01-91">
          <mxGeometry x="377" width="10" height="15" as="geometry" />
        </mxCell>
        <mxCell id="_1h60Payq04_R_aweM01-98" value="" style="line;strokeWidth=2;direction=south;html=1;fontFamily=Helvetica;fontSize=12;fontColor=default;labelBackgroundColor=default;verticalAlign=bottom;" vertex="1" parent="_1h60Payq04_R_aweM01-91">
          <mxGeometry x="407" width="10" height="15" as="geometry" />
        </mxCell>
        <mxCell id="_1h60Payq04_R_aweM01-99" value="" style="line;strokeWidth=2;direction=south;html=1;fontFamily=Helvetica;fontSize=12;fontColor=default;labelBackgroundColor=default;verticalAlign=bottom;" vertex="1" parent="_1h60Payq04_R_aweM01-91">
          <mxGeometry x="437" width="10" height="15" as="geometry" />
        </mxCell>
        <mxCell id="_1h60Payq04_R_aweM01-100" value="" style="line;strokeWidth=2;direction=south;html=1;fontFamily=Helvetica;fontSize=12;fontColor=default;labelBackgroundColor=default;verticalAlign=bottom;" vertex="1" parent="_1h60Payq04_R_aweM01-91">
          <mxGeometry x="466" width="10" height="15" as="geometry" />
        </mxCell>
        <mxCell id="_1h60Payq04_R_aweM01-101" value="" style="line;strokeWidth=2;direction=south;html=1;fontFamily=Helvetica;fontSize=12;fontColor=default;labelBackgroundColor=default;verticalAlign=bottom;" vertex="1" parent="_1h60Payq04_R_aweM01-91">
          <mxGeometry x="496" width="10" height="15" as="geometry" />
        </mxCell>
        <mxCell id="_1h60Payq04_R_aweM01-102" value="" style="line;strokeWidth=2;direction=south;html=1;fontFamily=Helvetica;fontSize=12;fontColor=default;labelBackgroundColor=default;verticalAlign=bottom;" vertex="1" parent="_1h60Payq04_R_aweM01-91">
          <mxGeometry x="526" width="10" height="15" as="geometry" />
        </mxCell>
        <mxCell id="_1h60Payq04_R_aweM01-103" value="" style="line;strokeWidth=2;direction=south;html=1;fontFamily=Helvetica;fontSize=12;fontColor=default;labelBackgroundColor=default;verticalAlign=bottom;" vertex="1" parent="_1h60Payq04_R_aweM01-91">
          <mxGeometry x="555" width="10" height="15" as="geometry" />
        </mxCell>
        <mxCell id="_1h60Payq04_R_aweM01-104" value="" style="line;strokeWidth=2;direction=south;html=1;fontFamily=Helvetica;fontSize=12;fontColor=default;labelBackgroundColor=default;verticalAlign=bottom;" vertex="1" parent="_1h60Payq04_R_aweM01-91">
          <mxGeometry x="585" width="10" height="15" as="geometry" />
        </mxCell>
        <mxCell id="_1h60Payq04_R_aweM01-105" value="" style="line;strokeWidth=2;direction=south;html=1;fontFamily=Helvetica;fontSize=12;fontColor=default;labelBackgroundColor=default;verticalAlign=bottom;" vertex="1" parent="_1h60Payq04_R_aweM01-91">
          <mxGeometry x="614" width="10" height="15" as="geometry" />
        </mxCell>
        <mxCell id="_1h60Payq04_R_aweM01-106" value="" style="line;strokeWidth=2;direction=south;html=1;fontFamily=Helvetica;fontSize=12;fontColor=default;labelBackgroundColor=default;verticalAlign=bottom;" vertex="1" parent="_1h60Payq04_R_aweM01-91">
          <mxGeometry x="644" width="10" height="15" as="geometry" />
        </mxCell>
        <mxCell id="_1h60Payq04_R_aweM01-107" value="" style="line;strokeWidth=2;direction=south;html=1;fontFamily=Helvetica;fontSize=12;fontColor=default;labelBackgroundColor=default;verticalAlign=bottom;" vertex="1" parent="_1h60Payq04_R_aweM01-91">
          <mxGeometry x="674" width="10" height="15" as="geometry" />
        </mxCell>
        <mxCell id="_1h60Payq04_R_aweM01-108" value="" style="line;strokeWidth=2;direction=south;html=1;fontFamily=Helvetica;fontSize=12;fontColor=default;labelBackgroundColor=default;verticalAlign=bottom;" vertex="1" parent="_1h60Payq04_R_aweM01-91">
          <mxGeometry x="703" width="10" height="15" as="geometry" />
        </mxCell>
        <mxCell id="_1h60Payq04_R_aweM01-109" value="" style="line;strokeWidth=2;direction=south;html=1;fontFamily=Helvetica;fontSize=12;fontColor=default;labelBackgroundColor=default;verticalAlign=bottom;" vertex="1" parent="_1h60Payq04_R_aweM01-91">
          <mxGeometry x="733" width="10" height="15" as="geometry" />
        </mxCell>
        <mxCell id="_1h60Payq04_R_aweM01-110" value="" style="line;strokeWidth=2;direction=south;html=1;fontFamily=Helvetica;fontSize=12;fontColor=default;labelBackgroundColor=default;verticalAlign=bottom;" vertex="1" parent="_1h60Payq04_R_aweM01-91">
          <mxGeometry x="763" width="10" height="15" as="geometry" />
        </mxCell>
        <mxCell id="_1h60Payq04_R_aweM01-111" value="" style="line;strokeWidth=2;direction=south;html=1;fontFamily=Helvetica;fontSize=12;fontColor=default;labelBackgroundColor=default;verticalAlign=bottom;" vertex="1" parent="_1h60Payq04_R_aweM01-91">
          <mxGeometry x="792" width="10" height="15" as="geometry" />
        </mxCell>
        <mxCell id="_1h60Payq04_R_aweM01-112" value="" style="line;strokeWidth=2;direction=south;html=1;fontFamily=Helvetica;fontSize=12;fontColor=default;labelBackgroundColor=default;verticalAlign=bottom;" vertex="1" parent="_1h60Payq04_R_aweM01-91">
          <mxGeometry x="822" width="10" height="15" as="geometry" />
        </mxCell>
        <mxCell id="_1h60Payq04_R_aweM01-113" value="" style="line;strokeWidth=2;direction=south;html=1;fontFamily=Helvetica;fontSize=12;fontColor=default;labelBackgroundColor=default;verticalAlign=bottom;" vertex="1" parent="_1h60Payq04_R_aweM01-91">
          <mxGeometry x="851" width="10" height="15" as="geometry" />
        </mxCell>
        <mxCell id="_1h60Payq04_R_aweM01-114" value="" style="line;strokeWidth=2;direction=south;html=1;fontFamily=Helvetica;fontSize=12;fontColor=default;labelBackgroundColor=default;verticalAlign=bottom;" vertex="1" parent="_1h60Payq04_R_aweM01-91">
          <mxGeometry x="881" width="10" height="15" as="geometry" />
        </mxCell>
        <mxCell id="_1h60Payq04_R_aweM01-115" value="" style="line;strokeWidth=2;direction=south;html=1;fontFamily=Helvetica;fontSize=12;fontColor=default;labelBackgroundColor=default;verticalAlign=bottom;" vertex="1" parent="_1h60Payq04_R_aweM01-91">
          <mxGeometry x="911" width="10" height="15" as="geometry" />
        </mxCell>
        <mxCell id="_1h60Payq04_R_aweM01-116" value="" style="line;strokeWidth=2;direction=south;html=1;fontFamily=Helvetica;fontSize=12;fontColor=default;labelBackgroundColor=default;verticalAlign=bottom;" vertex="1" parent="_1h60Payq04_R_aweM01-91">
          <mxGeometry x="940" width="10" height="15" as="geometry" />
        </mxCell>
        <mxCell id="_1h60Payq04_R_aweM01-117" value="" style="line;strokeWidth=2;direction=south;html=1;fontFamily=Helvetica;fontSize=12;fontColor=default;labelBackgroundColor=default;verticalAlign=bottom;" vertex="1" parent="_1h60Payq04_R_aweM01-91">
          <mxGeometry x="970" width="10" height="15" as="geometry" />
        </mxCell>
        <mxCell id="_1h60Payq04_R_aweM01-124" value="" style="line;strokeWidth=2;direction=south;html=1;fontFamily=Helvetica;fontSize=12;fontColor=default;labelBackgroundColor=default;verticalAlign=bottom;" vertex="1" parent="_1h60Payq04_R_aweM01-91">
          <mxGeometry x="229" width="10" height="15" as="geometry" />
        </mxCell>
        <mxCell id="_1h60Payq04_R_aweM01-125" value="" style="line;strokeWidth=2;direction=south;html=1;fontFamily=Helvetica;fontSize=12;fontColor=default;labelBackgroundColor=default;verticalAlign=bottom;" vertex="1" parent="_1h60Payq04_R_aweM01-91">
          <mxGeometry x="200" width="10" height="15" as="geometry" />
        </mxCell>
        <mxCell id="_1h60Payq04_R_aweM01-126" value="" style="line;strokeWidth=2;direction=south;html=1;fontFamily=Helvetica;fontSize=12;fontColor=default;labelBackgroundColor=default;verticalAlign=bottom;" vertex="1" parent="_1h60Payq04_R_aweM01-91">
          <mxGeometry x="170" width="10" height="15" as="geometry" />
        </mxCell>
        <mxCell id="_1h60Payq04_R_aweM01-119" value="" style="endArrow=classic;html=1;rounded=0;strokeColor=default;align=center;verticalAlign=middle;fontFamily=Helvetica;fontSize=12;fontColor=default;labelBackgroundColor=default;edgeStyle=none;startSize=8;endSize=8;curved=1;exitX=0.925;exitY=0.625;exitDx=0;exitDy=0;exitPerimeter=0;" edge="1" parent="_1h60Payq04_R_aweM01-5" source="_1h60Payq04_R_aweM01-24" target="_1h60Payq04_R_aweM01-25">
          <mxGeometry width="50" height="50" relative="1" as="geometry">
            <mxPoint x="340" y="303" as="sourcePoint" />
            <mxPoint x="492" y="134" as="targetPoint" />
          </mxGeometry>
        </mxCell>
        <mxCell id="_1h60Payq04_R_aweM01-120" value="13s" style="shape=dimension;whiteSpace=wrap;html=1;align=center;points=[];verticalAlign=bottom;spacingBottom=3;labelBackgroundColor=none;fontFamily=Helvetica;fontSize=12;fontColor=default;" vertex="1" parent="_1h60Payq04_R_aweM01-5">
          <mxGeometry x="412" y="453" width="384" height="21" as="geometry" />
        </mxCell>
        <mxCell id="_1h60Payq04_R_aweM01-121" value="7s" style="shape=dimension;whiteSpace=wrap;html=1;align=center;points=[];verticalAlign=bottom;spacingBottom=3;labelBackgroundColor=none;fontFamily=Helvetica;fontSize=12;fontColor=default;" vertex="1" parent="_1h60Payq04_R_aweM01-5">
          <mxGeometry x="236" y="68" width="204" height="16" as="geometry" />
        </mxCell>
        <mxCell id="_1h60Payq04_R_aweM01-138" style="edgeStyle=none;shape=connector;curved=1;rounded=0;orthogonalLoop=1;jettySize=auto;html=1;entryX=0;entryY=0;entryDx=0;entryDy=0;strokeColor=default;align=center;verticalAlign=middle;fontFamily=Helvetica;fontSize=12;fontColor=default;labelBackgroundColor=default;startSize=8;endArrow=none;endFill=0;endSize=8;" edge="1" parent="_1h60Payq04_R_aweM01-5" source="_1h60Payq04_R_aweM01-130" target="_1h60Payq04_R_aweM01-137">
          <mxGeometry relative="1" as="geometry" />
        </mxCell>
        <mxCell id="_1h60Payq04_R_aweM01-139" style="edgeStyle=none;shape=connector;curved=1;rounded=0;orthogonalLoop=1;jettySize=auto;html=1;entryX=0;entryY=1;entryDx=0;entryDy=0;strokeColor=default;align=center;verticalAlign=middle;fontFamily=Helvetica;fontSize=12;fontColor=default;labelBackgroundColor=default;startSize=8;endArrow=none;endFill=0;endSize=8;" edge="1" parent="_1h60Payq04_R_aweM01-5" source="_1h60Payq04_R_aweM01-130" target="_1h60Payq04_R_aweM01-137">
          <mxGeometry relative="1" as="geometry" />
        </mxCell>
        <mxCell id="_1h60Payq04_R_aweM01-130" value="" style="shape=waypoint;sketch=0;fillStyle=solid;size=6;pointerEvents=1;points=[];fillColor=none;resizable=0;rotatable=0;perimeter=centerPerimeter;snapToPoint=1;fontFamily=Helvetica;fontSize=12;fontColor=default;labelBackgroundColor=default;" vertex="1" parent="_1h60Payq04_R_aweM01-5">
          <mxGeometry x="222" y="551" width="20" height="20" as="geometry" />
        </mxCell>
        <mxCell id="_1h60Payq04_R_aweM01-143" style="edgeStyle=none;shape=connector;curved=1;rounded=0;orthogonalLoop=1;jettySize=auto;html=1;entryX=0;entryY=0;entryDx=0;entryDy=0;strokeColor=default;align=center;verticalAlign=middle;fontFamily=Helvetica;fontSize=12;fontColor=default;labelBackgroundColor=default;startSize=8;endArrow=none;endFill=0;endSize=8;" edge="1" parent="_1h60Payq04_R_aweM01-5" source="_1h60Payq04_R_aweM01-131" target="_1h60Payq04_R_aweM01-142">
          <mxGeometry relative="1" as="geometry" />
        </mxCell>
        <mxCell id="_1h60Payq04_R_aweM01-144" style="edgeStyle=none;shape=connector;curved=1;rounded=0;orthogonalLoop=1;jettySize=auto;html=1;entryX=0;entryY=1;entryDx=0;entryDy=0;strokeColor=default;align=center;verticalAlign=middle;fontFamily=Helvetica;fontSize=12;fontColor=default;labelBackgroundColor=default;startSize=8;endArrow=none;endFill=0;endSize=8;" edge="1" parent="_1h60Payq04_R_aweM01-5" source="_1h60Payq04_R_aweM01-131" target="_1h60Payq04_R_aweM01-142">
          <mxGeometry relative="1" as="geometry" />
        </mxCell>
        <mxCell id="_1h60Payq04_R_aweM01-131" value="" style="shape=waypoint;sketch=0;fillStyle=solid;size=6;pointerEvents=1;points=[];fillColor=none;resizable=0;rotatable=0;perimeter=centerPerimeter;snapToPoint=1;fontFamily=Helvetica;fontSize=12;fontColor=default;labelBackgroundColor=default;" vertex="1" parent="_1h60Payq04_R_aweM01-5">
          <mxGeometry x="430" y="551" width="20" height="20" as="geometry" />
        </mxCell>
        <mxCell id="_1h60Payq04_R_aweM01-149" style="edgeStyle=none;shape=connector;curved=1;rounded=0;orthogonalLoop=1;jettySize=auto;html=1;entryX=0;entryY=0;entryDx=0;entryDy=0;strokeColor=default;align=center;verticalAlign=middle;fontFamily=Helvetica;fontSize=12;fontColor=default;labelBackgroundColor=default;startSize=8;endArrow=none;endFill=0;endSize=8;" edge="1" parent="_1h60Payq04_R_aweM01-5" source="_1h60Payq04_R_aweM01-132" target="_1h60Payq04_R_aweM01-147">
          <mxGeometry relative="1" as="geometry" />
        </mxCell>
        <mxCell id="_1h60Payq04_R_aweM01-150" style="edgeStyle=none;shape=connector;curved=1;rounded=0;orthogonalLoop=1;jettySize=auto;html=1;entryX=0;entryY=1;entryDx=0;entryDy=0;strokeColor=default;align=center;verticalAlign=middle;fontFamily=Helvetica;fontSize=12;fontColor=default;labelBackgroundColor=default;startSize=8;endArrow=none;endFill=0;endSize=8;" edge="1" parent="_1h60Payq04_R_aweM01-5" source="_1h60Payq04_R_aweM01-132" target="_1h60Payq04_R_aweM01-147">
          <mxGeometry relative="1" as="geometry" />
        </mxCell>
        <mxCell id="_1h60Payq04_R_aweM01-132" value="" style="shape=waypoint;sketch=0;fillStyle=solid;size=6;pointerEvents=1;points=[];fillColor=none;resizable=0;rotatable=0;perimeter=centerPerimeter;snapToPoint=1;fontFamily=Helvetica;fontSize=12;fontColor=default;labelBackgroundColor=default;" vertex="1" parent="_1h60Payq04_R_aweM01-5">
          <mxGeometry x="545" y="551" width="20" height="20" as="geometry" />
        </mxCell>
        <mxCell id="_1h60Payq04_R_aweM01-153" style="edgeStyle=none;shape=connector;curved=1;rounded=0;orthogonalLoop=1;jettySize=auto;html=1;entryX=0;entryY=0;entryDx=0;entryDy=0;strokeColor=default;align=center;verticalAlign=middle;fontFamily=Helvetica;fontSize=12;fontColor=default;labelBackgroundColor=default;startSize=8;endArrow=none;endFill=0;endSize=8;" edge="1" parent="_1h60Payq04_R_aweM01-5" source="_1h60Payq04_R_aweM01-133" target="_1h60Payq04_R_aweM01-148">
          <mxGeometry relative="1" as="geometry" />
        </mxCell>
        <mxCell id="_1h60Payq04_R_aweM01-154" style="edgeStyle=none;shape=connector;curved=1;rounded=0;orthogonalLoop=1;jettySize=auto;html=1;entryX=0;entryY=1;entryDx=0;entryDy=0;strokeColor=default;align=center;verticalAlign=middle;fontFamily=Helvetica;fontSize=12;fontColor=default;labelBackgroundColor=default;startSize=8;endArrow=none;endFill=0;endSize=8;" edge="1" parent="_1h60Payq04_R_aweM01-5" source="_1h60Payq04_R_aweM01-133" target="_1h60Payq04_R_aweM01-148">
          <mxGeometry relative="1" as="geometry" />
        </mxCell>
        <mxCell id="_1h60Payq04_R_aweM01-133" value="" style="shape=waypoint;sketch=0;fillStyle=solid;size=6;pointerEvents=1;points=[];fillColor=none;resizable=0;rotatable=0;perimeter=centerPerimeter;snapToPoint=1;fontFamily=Helvetica;fontSize=12;fontColor=default;labelBackgroundColor=default;" vertex="1" parent="_1h60Payq04_R_aweM01-5">
          <mxGeometry x="755" y="551" width="20" height="20" as="geometry" />
        </mxCell>
        <mxCell id="_1h60Payq04_R_aweM01-135" value="" style="edgeStyle=none;shape=connector;curved=1;rounded=0;orthogonalLoop=1;jettySize=auto;html=1;exitX=1;exitY=0;exitDx=0;exitDy=0;strokeColor=default;align=center;verticalAlign=middle;fontFamily=Helvetica;fontSize=12;fontColor=default;labelBackgroundColor=default;startSize=8;endArrow=none;endFill=0;endSize=8;" edge="1" parent="_1h60Payq04_R_aweM01-5" source="_1h60Payq04_R_aweM01-134" target="_1h60Payq04_R_aweM01-130">
          <mxGeometry x="-0.0296" relative="1" as="geometry">
            <mxPoint as="offset" />
          </mxGeometry>
        </mxCell>
        <mxCell id="_1h60Payq04_R_aweM01-136" style="edgeStyle=none;shape=connector;curved=1;rounded=0;orthogonalLoop=1;jettySize=auto;html=1;exitX=1;exitY=1;exitDx=0;exitDy=0;strokeColor=default;align=center;verticalAlign=middle;fontFamily=Helvetica;fontSize=12;fontColor=default;labelBackgroundColor=default;startSize=8;endArrow=none;endFill=0;endSize=8;" edge="1" parent="_1h60Payq04_R_aweM01-5" source="_1h60Payq04_R_aweM01-134" target="_1h60Payq04_R_aweM01-130">
          <mxGeometry relative="1" as="geometry" />
        </mxCell>
        <mxCell id="_1h60Payq04_R_aweM01-134" value="Idle" style="shape=partialRectangle;whiteSpace=wrap;html=1;left=0;right=0;fillColor=none;fontFamily=Helvetica;fontSize=12;fontColor=default;labelBackgroundColor=default;" vertex="1" parent="_1h60Payq04_R_aweM01-5">
          <mxGeometry x="170" y="546" width="45" height="30" as="geometry" />
        </mxCell>
        <mxCell id="_1h60Payq04_R_aweM01-140" style="edgeStyle=none;shape=connector;curved=1;rounded=0;orthogonalLoop=1;jettySize=auto;html=1;exitX=1;exitY=0;exitDx=0;exitDy=0;strokeColor=default;align=center;verticalAlign=middle;fontFamily=Helvetica;fontSize=12;fontColor=default;labelBackgroundColor=default;startSize=8;endArrow=none;endFill=0;endSize=8;" edge="1" parent="_1h60Payq04_R_aweM01-5" source="_1h60Payq04_R_aweM01-137" target="_1h60Payq04_R_aweM01-131">
          <mxGeometry relative="1" as="geometry" />
        </mxCell>
        <mxCell id="_1h60Payq04_R_aweM01-141" style="edgeStyle=none;shape=connector;curved=1;rounded=0;orthogonalLoop=1;jettySize=auto;html=1;exitX=1;exitY=1;exitDx=0;exitDy=0;strokeColor=default;align=center;verticalAlign=middle;fontFamily=Helvetica;fontSize=12;fontColor=default;labelBackgroundColor=default;startSize=8;endArrow=none;endFill=0;endSize=8;" edge="1" parent="_1h60Payq04_R_aweM01-5" source="_1h60Payq04_R_aweM01-137" target="_1h60Payq04_R_aweM01-131">
          <mxGeometry relative="1" as="geometry" />
        </mxCell>
        <mxCell id="_1h60Payq04_R_aweM01-137" value="enterTicket" style="shape=partialRectangle;whiteSpace=wrap;html=1;left=0;right=0;fillColor=none;fontFamily=Helvetica;fontSize=12;fontColor=default;labelBackgroundColor=default;" vertex="1" parent="_1h60Payq04_R_aweM01-5">
          <mxGeometry x="254" y="546" width="164" height="30" as="geometry" />
        </mxCell>
        <mxCell id="_1h60Payq04_R_aweM01-145" style="edgeStyle=none;shape=connector;curved=1;rounded=0;orthogonalLoop=1;jettySize=auto;html=1;exitX=1;exitY=0;exitDx=0;exitDy=0;strokeColor=default;align=center;verticalAlign=middle;fontFamily=Helvetica;fontSize=12;fontColor=default;labelBackgroundColor=default;startSize=8;endArrow=none;endFill=0;endSize=8;" edge="1" parent="_1h60Payq04_R_aweM01-5" source="_1h60Payq04_R_aweM01-142" target="_1h60Payq04_R_aweM01-132">
          <mxGeometry relative="1" as="geometry" />
        </mxCell>
        <mxCell id="_1h60Payq04_R_aweM01-146" style="edgeStyle=none;shape=connector;curved=1;rounded=0;orthogonalLoop=1;jettySize=auto;html=1;exitX=1;exitY=1;exitDx=0;exitDy=0;strokeColor=default;align=center;verticalAlign=middle;fontFamily=Helvetica;fontSize=12;fontColor=default;labelBackgroundColor=default;startSize=8;endArrow=none;endFill=0;endSize=8;" edge="1" parent="_1h60Payq04_R_aweM01-5" source="_1h60Payq04_R_aweM01-142">
          <mxGeometry relative="1" as="geometry">
            <mxPoint x="550" y="561" as="targetPoint" />
          </mxGeometry>
        </mxCell>
        <mxCell id="_1h60Payq04_R_aweM01-142" value="takeTicket" style="shape=partialRectangle;whiteSpace=wrap;html=1;left=0;right=0;fillColor=none;fontFamily=Helvetica;fontSize=12;fontColor=default;labelBackgroundColor=default;" vertex="1" parent="_1h60Payq04_R_aweM01-5">
          <mxGeometry x="460" y="546" width="70" height="30" as="geometry" />
        </mxCell>
        <mxCell id="_1h60Payq04_R_aweM01-151" style="edgeStyle=none;shape=connector;curved=1;rounded=0;orthogonalLoop=1;jettySize=auto;html=1;exitX=1;exitY=0;exitDx=0;exitDy=0;strokeColor=default;align=center;verticalAlign=middle;fontFamily=Helvetica;fontSize=12;fontColor=default;labelBackgroundColor=default;startSize=8;endArrow=none;endFill=0;endSize=8;" edge="1" parent="_1h60Payq04_R_aweM01-5" source="_1h60Payq04_R_aweM01-147" target="_1h60Payq04_R_aweM01-133">
          <mxGeometry relative="1" as="geometry" />
        </mxCell>
        <mxCell id="_1h60Payq04_R_aweM01-152" style="edgeStyle=none;shape=connector;curved=1;rounded=0;orthogonalLoop=1;jettySize=auto;html=1;exitX=1;exitY=1;exitDx=0;exitDy=0;strokeColor=default;align=center;verticalAlign=middle;fontFamily=Helvetica;fontSize=12;fontColor=default;labelBackgroundColor=default;startSize=8;endArrow=none;endFill=0;endSize=8;" edge="1" parent="_1h60Payq04_R_aweM01-5" source="_1h60Payq04_R_aweM01-147" target="_1h60Payq04_R_aweM01-133">
          <mxGeometry relative="1" as="geometry" />
        </mxCell>
        <mxCell id="_1h60Payq04_R_aweM01-147" value="passGate" style="shape=partialRectangle;whiteSpace=wrap;html=1;left=0;right=0;fillColor=none;fontFamily=Helvetica;fontSize=12;fontColor=default;labelBackgroundColor=default;" vertex="1" parent="_1h60Payq04_R_aweM01-5">
          <mxGeometry x="580" y="546" width="160" height="30" as="geometry" />
        </mxCell>
        <mxCell id="_1h60Payq04_R_aweM01-148" value="Idle" style="shape=partialRectangle;whiteSpace=wrap;html=1;left=0;right=0;fillColor=none;fontFamily=Helvetica;fontSize=12;fontColor=default;labelBackgroundColor=default;" vertex="1" parent="_1h60Payq04_R_aweM01-5">
          <mxGeometry x="787" y="546" width="183" height="30" as="geometry" />
        </mxCell>
        <mxCell id="_1h60Payq04_R_aweM01-155" value="7s" style="shape=dimension;whiteSpace=wrap;html=1;align=center;points=[];verticalAlign=bottom;spacingBottom=3;labelBackgroundColor=none;fontFamily=Helvetica;fontSize=12;fontColor=default;" vertex="1" parent="_1h60Payq04_R_aweM01-5">
          <mxGeometry x="235.5" y="509" width="201" height="16" as="geometry" />
        </mxCell>
        <mxCell id="_1h60Payq04_R_aweM01-158" value="" style="line;strokeWidth=2;direction=south;html=1;fontFamily=Helvetica;fontSize=12;fontColor=default;labelBackgroundColor=default;verticalAlign=top;" vertex="1" parent="_1h60Payq04_R_aweM01-5">
          <mxGeometry x="259" y="621" width="10" height="15" as="geometry" />
        </mxCell>
        <mxCell id="_1h60Payq04_R_aweM01-159" value="" style="line;strokeWidth=2;direction=south;html=1;fontFamily=Helvetica;fontSize=12;fontColor=default;labelBackgroundColor=default;verticalAlign=top;" vertex="1" parent="_1h60Payq04_R_aweM01-5">
          <mxGeometry x="348" y="621" width="10" height="15" as="geometry" />
        </mxCell>
        <mxCell id="_1h60Payq04_R_aweM01-160" value="" style="line;strokeWidth=2;direction=south;html=1;fontFamily=Helvetica;fontSize=12;fontColor=default;labelBackgroundColor=default;verticalAlign=top;" vertex="1" parent="_1h60Payq04_R_aweM01-5">
          <mxGeometry x="289" y="621" width="10" height="15" as="geometry" />
        </mxCell>
        <mxCell id="_1h60Payq04_R_aweM01-161" value="5" style="line;strokeWidth=2;direction=south;html=1;fontFamily=Helvetica;fontSize=12;fontColor=default;labelBackgroundColor=default;verticalAlign=top;" vertex="1" parent="_1h60Payq04_R_aweM01-5">
          <mxGeometry x="318" y="621" width="10" height="15" as="geometry" />
        </mxCell>
        <mxCell id="_1h60Payq04_R_aweM01-162" value="" style="line;strokeWidth=2;direction=south;html=1;fontFamily=Helvetica;fontSize=12;fontColor=default;labelBackgroundColor=default;verticalAlign=top;" vertex="1" parent="_1h60Payq04_R_aweM01-5">
          <mxGeometry x="377" y="621" width="10" height="15" as="geometry" />
        </mxCell>
        <mxCell id="_1h60Payq04_R_aweM01-163" value="" style="line;strokeWidth=2;direction=south;html=1;fontFamily=Helvetica;fontSize=12;fontColor=default;labelBackgroundColor=default;verticalAlign=top;" vertex="1" parent="_1h60Payq04_R_aweM01-5">
          <mxGeometry x="407" y="621" width="10" height="15" as="geometry" />
        </mxCell>
        <mxCell id="_1h60Payq04_R_aweM01-164" value="" style="line;strokeWidth=2;direction=south;html=1;fontFamily=Helvetica;fontSize=12;fontColor=default;labelBackgroundColor=default;verticalAlign=top;" vertex="1" parent="_1h60Payq04_R_aweM01-5">
          <mxGeometry x="437" y="621" width="10" height="15" as="geometry" />
        </mxCell>
        <mxCell id="_1h60Payq04_R_aweM01-165" value="10" style="line;strokeWidth=2;direction=south;html=1;fontFamily=Helvetica;fontSize=12;fontColor=default;labelBackgroundColor=default;verticalAlign=top;" vertex="1" parent="_1h60Payq04_R_aweM01-5">
          <mxGeometry x="466" y="621" width="10" height="15" as="geometry" />
        </mxCell>
        <mxCell id="_1h60Payq04_R_aweM01-166" value="" style="line;strokeWidth=2;direction=south;html=1;fontFamily=Helvetica;fontSize=12;fontColor=default;labelBackgroundColor=default;verticalAlign=top;" vertex="1" parent="_1h60Payq04_R_aweM01-5">
          <mxGeometry x="496" y="621" width="10" height="15" as="geometry" />
        </mxCell>
        <mxCell id="_1h60Payq04_R_aweM01-167" value="" style="line;strokeWidth=2;direction=south;html=1;fontFamily=Helvetica;fontSize=12;fontColor=default;labelBackgroundColor=default;verticalAlign=top;" vertex="1" parent="_1h60Payq04_R_aweM01-5">
          <mxGeometry x="526" y="621" width="10" height="15" as="geometry" />
        </mxCell>
        <mxCell id="_1h60Payq04_R_aweM01-168" value="" style="line;strokeWidth=2;direction=south;html=1;fontFamily=Helvetica;fontSize=12;fontColor=default;labelBackgroundColor=default;verticalAlign=top;" vertex="1" parent="_1h60Payq04_R_aweM01-5">
          <mxGeometry x="555" y="621" width="10" height="15" as="geometry" />
        </mxCell>
        <mxCell id="_1h60Payq04_R_aweM01-169" value="" style="line;strokeWidth=2;direction=south;html=1;fontFamily=Helvetica;fontSize=12;fontColor=default;labelBackgroundColor=default;verticalAlign=top;" vertex="1" parent="_1h60Payq04_R_aweM01-5">
          <mxGeometry x="585" y="621" width="10" height="15" as="geometry" />
        </mxCell>
        <mxCell id="_1h60Payq04_R_aweM01-170" value="15" style="line;strokeWidth=2;direction=south;html=1;fontFamily=Helvetica;fontSize=12;fontColor=default;labelBackgroundColor=default;verticalAlign=top;" vertex="1" parent="_1h60Payq04_R_aweM01-5">
          <mxGeometry x="614" y="621" width="10" height="15" as="geometry" />
        </mxCell>
        <mxCell id="_1h60Payq04_R_aweM01-171" value="" style="line;strokeWidth=2;direction=south;html=1;fontFamily=Helvetica;fontSize=12;fontColor=default;labelBackgroundColor=default;verticalAlign=top;" vertex="1" parent="_1h60Payq04_R_aweM01-5">
          <mxGeometry x="644" y="621" width="10" height="15" as="geometry" />
        </mxCell>
        <mxCell id="_1h60Payq04_R_aweM01-172" value="" style="line;strokeWidth=2;direction=south;html=1;fontFamily=Helvetica;fontSize=12;fontColor=default;labelBackgroundColor=default;verticalAlign=top;" vertex="1" parent="_1h60Payq04_R_aweM01-5">
          <mxGeometry x="674" y="621" width="10" height="15" as="geometry" />
        </mxCell>
        <mxCell id="_1h60Payq04_R_aweM01-173" value="" style="line;strokeWidth=2;direction=south;html=1;fontFamily=Helvetica;fontSize=12;fontColor=default;labelBackgroundColor=default;verticalAlign=top;" vertex="1" parent="_1h60Payq04_R_aweM01-5">
          <mxGeometry x="703" y="621" width="10" height="15" as="geometry" />
        </mxCell>
        <mxCell id="_1h60Payq04_R_aweM01-174" value="" style="line;strokeWidth=2;direction=south;html=1;fontFamily=Helvetica;fontSize=12;fontColor=default;labelBackgroundColor=default;verticalAlign=top;" vertex="1" parent="_1h60Payq04_R_aweM01-5">
          <mxGeometry x="733" y="621" width="10" height="15" as="geometry" />
        </mxCell>
        <mxCell id="_1h60Payq04_R_aweM01-175" value="20" style="line;strokeWidth=2;direction=south;html=1;fontFamily=Helvetica;fontSize=12;fontColor=default;labelBackgroundColor=default;verticalAlign=top;" vertex="1" parent="_1h60Payq04_R_aweM01-5">
          <mxGeometry x="763" y="621" width="10" height="15" as="geometry" />
        </mxCell>
        <mxCell id="_1h60Payq04_R_aweM01-176" value="" style="line;strokeWidth=2;direction=south;html=1;fontFamily=Helvetica;fontSize=12;fontColor=default;labelBackgroundColor=default;verticalAlign=top;" vertex="1" parent="_1h60Payq04_R_aweM01-5">
          <mxGeometry x="792" y="621" width="10" height="15" as="geometry" />
        </mxCell>
        <mxCell id="_1h60Payq04_R_aweM01-177" value="" style="line;strokeWidth=2;direction=south;html=1;fontFamily=Helvetica;fontSize=12;fontColor=default;labelBackgroundColor=default;verticalAlign=top;" vertex="1" parent="_1h60Payq04_R_aweM01-5">
          <mxGeometry x="822" y="621" width="10" height="15" as="geometry" />
        </mxCell>
        <mxCell id="_1h60Payq04_R_aweM01-178" value="" style="line;strokeWidth=2;direction=south;html=1;fontFamily=Helvetica;fontSize=12;fontColor=default;labelBackgroundColor=default;verticalAlign=top;" vertex="1" parent="_1h60Payq04_R_aweM01-5">
          <mxGeometry x="851" y="621" width="10" height="15" as="geometry" />
        </mxCell>
        <mxCell id="_1h60Payq04_R_aweM01-179" value="" style="line;strokeWidth=2;direction=south;html=1;fontFamily=Helvetica;fontSize=12;fontColor=default;labelBackgroundColor=default;verticalAlign=top;" vertex="1" parent="_1h60Payq04_R_aweM01-5">
          <mxGeometry x="881" y="621" width="10" height="15" as="geometry" />
        </mxCell>
        <mxCell id="_1h60Payq04_R_aweM01-180" value="25" style="line;strokeWidth=2;direction=south;html=1;fontFamily=Helvetica;fontSize=12;fontColor=default;labelBackgroundColor=default;verticalAlign=top;" vertex="1" parent="_1h60Payq04_R_aweM01-5">
          <mxGeometry x="911" y="621" width="10" height="15" as="geometry" />
        </mxCell>
        <mxCell id="_1h60Payq04_R_aweM01-181" value="" style="line;strokeWidth=2;direction=south;html=1;fontFamily=Helvetica;fontSize=12;fontColor=default;labelBackgroundColor=default;verticalAlign=top;" vertex="1" parent="_1h60Payq04_R_aweM01-5">
          <mxGeometry x="940" y="621" width="10" height="15" as="geometry" />
        </mxCell>
        <mxCell id="_1h60Payq04_R_aweM01-182" value="" style="line;strokeWidth=2;direction=south;html=1;fontFamily=Helvetica;fontSize=12;fontColor=default;labelBackgroundColor=default;verticalAlign=top;" vertex="1" parent="_1h60Payq04_R_aweM01-5">
          <mxGeometry x="970" y="621" width="10" height="15" as="geometry" />
        </mxCell>
        <mxCell id="_1h60Payq04_R_aweM01-183" value="" style="line;strokeWidth=2;direction=south;html=1;fontFamily=Helvetica;fontSize=12;fontColor=default;labelBackgroundColor=default;verticalAlign=top;" vertex="1" parent="_1h60Payq04_R_aweM01-5">
          <mxGeometry x="229" y="621" width="10" height="15" as="geometry" />
        </mxCell>
        <mxCell id="_1h60Payq04_R_aweM01-184" value="" style="line;strokeWidth=2;direction=south;html=1;fontFamily=Helvetica;fontSize=12;fontColor=default;labelBackgroundColor=default;verticalAlign=top;" vertex="1" parent="_1h60Payq04_R_aweM01-5">
          <mxGeometry x="200" y="621" width="10" height="15" as="geometry" />
        </mxCell>
        <mxCell id="_1h60Payq04_R_aweM01-185" value="0" style="line;strokeWidth=2;direction=south;html=1;fontFamily=Helvetica;fontSize=12;fontColor=default;labelBackgroundColor=default;verticalAlign=top;" vertex="1" parent="_1h60Payq04_R_aweM01-5">
          <mxGeometry x="170" y="621" width="10" height="15" as="geometry" />
        </mxCell>
        <mxCell id="_1h60Payq04_R_aweM01-188" value="ValidatedPassenger" style="text;strokeColor=none;fillColor=none;html=1;fontSize=12;fontStyle=1;verticalAlign=middle;align=center;fontFamily=Helvetica;fontColor=default;labelBackgroundColor=default;horizontal=0;" vertex="1" parent="_1h60Payq04_R_aweM01-5">
          <mxGeometry x="-30" y="539" width="100" height="40" as="geometry" />
        </mxCell>
        <mxCell id="_1h60Payq04_R_aweM01-189" value="TurnstileSystem" style="text;strokeColor=none;fillColor=none;html=1;fontSize=12;fontStyle=1;verticalAlign=middle;align=center;fontFamily=Helvetica;fontColor=default;labelBackgroundColor=default;horizontal=0;" vertex="1" parent="_1h60Payq04_R_aweM01-5">
          <mxGeometry x="-30" y="324" width="100" height="40" as="geometry" />
        </mxCell>
        <mxCell id="_1h60Payq04_R_aweM01-190" value="Passenger" style="text;strokeColor=none;fillColor=none;html=1;fontSize=12;fontStyle=1;verticalAlign=middle;align=center;fontFamily=Helvetica;fontColor=default;labelBackgroundColor=default;horizontal=0;" vertex="1" parent="_1h60Payq04_R_aweM01-5">
          <mxGeometry x="-30" y="93" width="100" height="40" as="geometry" />
        </mxCell>
        <mxCell id="_1h60Payq04_R_aweM01-48" value="" style="line;strokeWidth=2;direction=south;html=1;fontFamily=Helvetica;fontSize=12;fontColor=default;labelBackgroundColor=default;verticalAlign=bottom;" vertex="1" parent="1">
          <mxGeometry x="589" y="1313" width="10" height="15" as="geometry" />
        </mxCell>
      </root>
    </mxGraphModel>
  </diagram>
</mxfile>
